<?xml version="1.0" encoding="utf-8"?>
<!-- Generator: Adobe Illustrator 16.0.4, SVG Export Plug-In . SVG Version: 6.00 Build 0)  -->
<!DOCTYPE svg PUBLIC "-//W3C//DTD SVG 1.1//EN" "http://www.w3.org/Graphics/SVG/1.1/DTD/svg11.dtd">
<svg version="1.1" id="Layer_1" xmlns="http://www.w3.org/2000/svg" xmlns:xlink="http://www.w3.org/1999/xlink" x="0px" y="0px"
	 width="545.194px" height="98.733px" viewBox="0 0 545.194 98.733" enable-background="new 0 0 545.194 98.733"
	 xml:space="preserve">
<g>
	<g>
		<g transform="translate(-239.000000, -659.000000)">
			<g transform="translate(239.000000, 659.000000)">
				<path fill="#FFFFFF" d="M57.661,95.691c0.554-1.076,1.169-2.302,1.832-3.655c1.892-3.865,3.783-7.989,5.551-12.206
					c1.681-4.01,3.163-7.902,4.394-11.609c2.455-7.396,3.816-13.754,3.816-18.854c0-5.101-1.362-11.457-3.816-18.854
					c-1.23-3.707-2.713-7.601-4.394-11.61c-1.768-4.217-3.659-8.341-5.551-12.206c-0.663-1.354-1.278-2.58-1.832-3.656
					c-0.334-0.651-0.576-1.11-0.708-1.357c-1.199-2.245-4.418-2.245-5.618,0c-0.132,0.247-0.373,0.707-0.708,1.357
					c-0.553,1.077-1.169,2.302-1.832,3.656c-1.892,3.865-3.783,7.988-5.551,12.206c-1.681,4.009-3.163,7.903-4.394,11.61
					c-2.455,7.396-3.816,13.753-3.816,18.854c0,5.1,1.362,11.457,3.816,18.854c1.23,3.707,2.713,7.6,4.394,11.609
					c1.768,4.217,3.659,8.341,5.551,12.206c0.663,1.354,1.279,2.579,1.832,3.655c0.334,0.651,0.576,1.11,0.708,1.357
					c1.2,2.246,4.419,2.246,5.618,0C57.085,96.801,57.326,96.342,57.661,95.691z M49.119,77.368
					c-1.621-3.868-3.047-7.612-4.223-11.155c-2.258-6.805-3.492-12.562-3.492-16.846s1.234-10.042,3.492-16.847
					c1.176-3.542,2.602-7.286,4.223-11.155c1.716-4.094,5.043-11.066,5.043-11.066s3.413,7.262,5.007,11.066
					c1.622,3.869,3.047,7.613,4.223,11.155c2.259,6.805,3.492,12.563,3.492,16.847s-1.233,10.041-3.492,16.846
					c-1.175,3.543-2.601,7.287-4.223,11.155c-1.599,3.813-3.306,7.559-5.02,11.093C54.023,88.72,50.835,81.461,49.119,77.368z"/>
				<path fill="#FFFFFF" d="M46.182,52.551c1.759,0,3.185-1.426,3.185-3.185c0-1.76-1.426-3.186-3.185-3.186h-19.11
					c-1.759,0-3.185,1.426-3.185,3.186c0,1.759,1.426,3.185,3.185,3.185H46.182z"/>
				<path fill="#FFFFFF" d="M20.702,46.181c1.756,0,3.185,1.43,3.185,3.186s-1.43,3.185-3.185,3.185H6.37v-6.37H20.702z M0,42.997
					v12.739c0,1.76,1.426,3.186,3.185,3.186h17.517c5.272,0,9.555-4.279,9.555-9.555c0-5.271-4.28-9.555-9.555-9.555H3.185
					C1.426,39.812,0,41.238,0,42.997z"/>
				<path fill="#FFFFFF" d="M62.106,52.551c-1.759,0-3.185-1.426-3.185-3.185c0-1.76,1.426-3.186,3.185-3.186h19.11
					c1.759,0,3.185,1.426,3.185,3.186c0,1.759-1.426,3.185-3.185,3.185H62.106z"/>
				<path fill="#FFFFFF" d="M87.585,46.181c-1.756,0-3.185,1.43-3.185,3.186s1.429,3.185,3.185,3.185h14.332v-6.37H87.585z
					 M108.288,42.997v12.739c0,1.76-1.426,3.186-3.185,3.186H87.585c-5.273,0-9.555-4.279-9.555-9.555
					c0-5.271,4.28-9.555,9.555-9.555h17.517C106.862,39.812,108.288,41.238,108.288,42.997z"/>
				<path fill="#FFFFFF" d="M63.698,49.367c0-7.683-3.8-14.332-9.555-14.332c-5.754,0-9.555,6.649-9.555,14.332
					c0,7.682,3.8,14.332,9.555,14.332C59.898,63.699,63.698,57.048,63.698,49.367z M52.405,55.668
					c-0.898-1.573-1.446-3.837-1.446-6.302s0.547-4.729,1.446-6.303c0.671-1.174,1.328-1.66,1.739-1.66
					c0.412,0,1.068,0.486,1.739,1.66c0.898,1.573,1.446,3.838,1.446,6.303s-0.547,4.729-1.446,6.302
					c-0.671,1.175-1.328,1.66-1.739,1.66C53.732,57.329,53.076,56.843,52.405,55.668z"/>
			</g>
		</g>
	</g>
	<g>
		<g>
			<path fill="#FFFFFF" d="M148.465,13.017c3.5,0,6.567,0.474,9.203,1.422c2.635,0.948,4.828,2.208,6.578,3.781
				c1.75,1.573,3.067,3.381,3.953,5.422c0.885,2.042,1.328,4.156,1.328,6.344c0,2.042-0.396,4.062-1.188,6.062
				c-0.792,2-1.984,3.844-3.578,5.531s-3.604,3.146-6.031,4.375c-2.427,1.229-5.276,2.094-8.547,2.594
				c-0.062,1.521-0.115,2.917-0.156,4.188c-0.021,0.542-0.042,1.084-0.062,1.625c-0.021,0.542-0.037,1.037-0.047,1.484
				c-0.011,0.448-0.021,0.839-0.031,1.172c-0.011,0.334-0.016,0.562-0.016,0.688c-0.042,1.459-0.214,2.975-0.516,4.547
				c-0.302,1.573-0.74,3.109-1.312,4.609c-0.573,1.5-1.271,2.922-2.094,4.266c-0.823,1.344-1.781,2.521-2.875,3.531
				c-1.094,1.01-2.318,1.812-3.672,2.406c-1.354,0.594-2.833,0.891-4.438,0.891c-1.708,0-3.234-0.443-4.578-1.328
				c-1.344-0.886-2.521-2.078-3.531-3.578c-1.011-1.5-1.865-3.229-2.562-5.188c-0.698-1.958-1.266-4.005-1.703-6.141
				c-0.438-2.135-0.755-4.286-0.953-6.453c-0.198-2.166-0.297-4.208-0.297-6.125c0-3.291,0.302-6.469,0.906-9.531
				c0.604-3.062,1.469-5.932,2.594-8.609c1.125-2.677,2.489-5.119,4.094-7.328c1.604-2.208,3.411-4.104,5.422-5.688
				c2.01-1.583,4.198-2.807,6.562-3.672C143.283,13.45,145.798,13.017,148.465,13.017z M129.715,48.33
				c0,0.854,0.005,2.006,0.016,3.453c0.01,1.448,0.067,2.995,0.172,4.641c0.104,1.646,0.271,3.312,0.5,5
				c0.229,1.688,0.567,3.214,1.016,4.578c0.448,1.365,1.01,2.479,1.688,3.344c0.677,0.864,1.526,1.297,2.547,1.297
				c1.062,0,1.969-0.37,2.719-1.109s1.375-1.697,1.875-2.875c0.5-1.177,0.896-2.51,1.188-4c0.292-1.489,0.51-2.984,0.656-4.484
				c0.146-1.5,0.239-2.932,0.281-4.297c0.042-1.364,0.062-2.525,0.062-3.484v-1.469c-1.729-0.688-3.089-1.291-4.078-1.812
				c-0.99-0.521-1.734-1.021-2.234-1.5c-0.5-0.479-0.818-0.984-0.953-1.516c-0.136-0.531-0.203-1.15-0.203-1.859
				c0-0.375,0.01-0.744,0.031-1.109c0.021-0.364,0.078-0.688,0.172-0.969s0.229-0.51,0.406-0.688
				c0.177-0.177,0.422-0.266,0.734-0.266c0.208,0,0.401,0.042,0.578,0.125c0.177,0.084,0.401,0.198,0.672,0.344
				c0.688,0.375,1.312,0.683,1.875,0.922c0.562,0.24,1.042,0.433,1.438,0.578c0.458,0.167,0.875,0.292,1.25,0.375
				c0-0.271,0.005-0.807,0.016-1.609c0.01-0.802,0.073-1.719,0.188-2.75c0.114-1.031,0.307-2.109,0.578-3.234
				c0.271-1.125,0.667-2.156,1.188-3.094c0.521-0.938,1.198-1.713,2.031-2.328c0.833-0.614,1.864-0.922,3.094-0.922
				c0.375,0,0.76,0.037,1.156,0.109c0.396,0.073,0.755,0.209,1.078,0.406c0.323,0.198,0.594,0.464,0.812,0.797
				c0.219,0.334,0.328,0.761,0.328,1.281c0,0.146-0.005,0.245-0.016,0.297c-0.011,0.053-0.016,0.12-0.016,0.203l-1.906,8.031
				l-0.281,2.469c2.042-0.312,3.802-0.812,5.281-1.5c1.479-0.688,2.703-1.5,3.672-2.438s1.688-1.969,2.156-3.094
				s0.703-2.281,0.703-3.469c0-1.166-0.224-2.359-0.672-3.578c-0.448-1.219-1.224-2.328-2.328-3.328
				c-1.104-1-2.583-1.822-4.438-2.469c-1.854-0.646-4.188-0.969-7-0.969c-2.104,0-4.011,0.401-5.719,1.203
				c-1.708,0.803-3.229,1.891-4.562,3.266c-1.333,1.375-2.49,2.979-3.469,4.812c-0.979,1.834-1.787,3.787-2.422,5.859
				c-0.636,2.073-1.104,4.209-1.406,6.406C129.866,44.106,129.715,46.247,129.715,48.33z"/>
			<path fill="#FFFFFF" d="M178.122,69.986c-1.958,0-3.672-0.354-5.141-1.062c-1.469-0.708-2.693-1.661-3.672-2.859
				c-0.979-1.197-1.714-2.583-2.203-4.156c-0.49-1.572-0.734-3.224-0.734-4.953c0-1.166,0.114-2.4,0.344-3.703
				c0.229-1.302,0.578-2.578,1.047-3.828s1.057-2.442,1.766-3.578c0.708-1.135,1.536-2.135,2.484-3
				c0.948-0.864,2.01-1.552,3.188-2.062c1.177-0.51,2.484-0.766,3.922-0.766c1.167,0,2.25,0.188,3.25,0.562s1.87,0.901,2.609,1.578
				c0.739,0.678,1.317,1.495,1.734,2.453c0.417,0.959,0.625,2.031,0.625,3.219c0,1.292-0.318,2.584-0.953,3.875
				c-0.636,1.292-1.516,2.511-2.641,3.656c-1.125,1.146-2.464,2.167-4.016,3.062c-1.552,0.896-3.234,1.594-5.047,2.094
				c0.312,0.562,0.62,1.031,0.922,1.406c0.302,0.375,0.609,0.667,0.922,0.875c0.312,0.209,0.641,0.354,0.984,0.438
				c0.344,0.084,0.713,0.125,1.109,0.125c1.25,0,2.567-0.25,3.953-0.75c1.385-0.5,2.734-1.125,4.047-1.875s2.552-1.567,3.719-2.453
				c1.167-0.885,2.156-1.724,2.969-2.516l4.031,4.188c-1.833,1.896-3.781,3.573-5.844,5.031c-0.896,0.625-1.859,1.24-2.891,1.844
				c-1.031,0.604-2.115,1.141-3.25,1.609c-1.136,0.469-2.312,0.844-3.531,1.125S179.372,69.986,178.122,69.986z M173.965,55.298
				c0.75,0,1.567-0.192,2.453-0.578c0.885-0.385,1.708-0.88,2.469-1.484c0.76-0.604,1.401-1.26,1.922-1.969
				c0.521-0.708,0.781-1.396,0.781-2.062c0-0.938-0.172-1.708-0.516-2.312c-0.344-0.604-0.766-0.906-1.266-0.906
				c-0.896,0-1.662,0.167-2.297,0.5c-0.636,0.334-1.167,0.766-1.594,1.297c-0.427,0.531-0.771,1.136-1.031,1.812
				c-0.261,0.678-0.458,1.359-0.594,2.047c-0.136,0.688-0.224,1.354-0.266,2C173.986,54.289,173.965,54.84,173.965,55.298z"/>
			<path fill="#FFFFFF" d="M192.153,63.455c0-0.916,0.052-1.984,0.156-3.203c0.104-1.219,0.245-2.505,0.422-3.859
				c0.177-1.354,0.385-2.734,0.625-4.141c0.239-1.406,0.495-2.744,0.766-4.016c0.271-1.271,0.542-2.438,0.812-3.5
				c0.271-1.062,0.542-1.938,0.812-2.625c0.167-0.458,0.333-0.822,0.5-1.094c0.167-0.271,0.359-0.484,0.578-0.641
				s0.489-0.26,0.812-0.312c0.323-0.052,0.724-0.078,1.203-0.078c0.542,0,0.963,0.026,1.266,0.078
				c0.302,0.053,0.526,0.178,0.672,0.375c0.146,0.198,0.234,0.484,0.266,0.859s0.047,0.886,0.047,1.531c0,0.771,0,1.703,0,2.797
				s0.021,2.172,0.062,3.234h0.344c0.417-0.833,0.885-1.766,1.406-2.797c0.521-1.031,1.125-1.994,1.812-2.891
				c0.688-0.896,1.469-1.65,2.344-2.266c0.875-0.614,1.885-0.922,3.031-0.922c0.396,0,0.781,0.068,1.156,0.203
				c0.375,0.136,0.703,0.328,0.984,0.578s0.505,0.558,0.672,0.922c0.167,0.365,0.25,0.776,0.25,1.234
				c0,0.354-0.052,0.85-0.156,1.484c-0.104,0.636-0.219,1.303-0.344,2c-0.125,0.698-0.24,1.375-0.344,2.031
				c-0.104,0.656-0.156,1.203-0.156,1.641c0,0.75,0.073,1.375,0.219,1.875c0.146,0.5,0.338,0.901,0.578,1.203
				c0.239,0.303,0.51,0.516,0.812,0.641c0.302,0.125,0.62,0.188,0.953,0.188c0.938,0,1.906-0.208,2.906-0.625
				c1-0.416,1.917-0.885,2.75-1.406c0.979-0.604,1.938-1.291,2.875-2.062l-0.469,7.312c-0.542,0.354-1.156,0.75-1.844,1.188
				s-1.422,0.85-2.203,1.234c-0.781,0.386-1.594,0.709-2.438,0.969c-0.844,0.261-1.703,0.391-2.578,0.391
				c-1.562,0-2.823-0.317-3.781-0.953c-0.958-0.635-1.719-1.469-2.281-2.5s-0.979-2.188-1.25-3.469
				c-0.271-1.281-0.49-2.578-0.656-3.891h-0.5l-5.594,15.594c-0.292,0.812-0.568,1.484-0.828,2.016
				c-0.261,0.531-0.526,0.964-0.797,1.297c-0.271,0.334-0.562,0.568-0.875,0.703c-0.312,0.136-0.656,0.203-1.031,0.203
				c-0.854,0-1.542-0.182-2.062-0.547c-0.521-0.364-0.922-0.854-1.203-1.469c-0.281-0.614-0.469-1.312-0.562-2.094
				S192.153,64.289,192.153,63.455z"/>
			<path fill="#FFFFFF" d="M217.278,71.173c0-0.104,0.026-0.74,0.078-1.906c0.052-1.166,0.151-2.719,0.297-4.656
				c0.146-1.938,0.344-4.172,0.594-6.703s0.578-5.208,0.984-8.031c0.406-2.822,0.885-5.719,1.438-8.688
				c0.552-2.969,1.208-5.859,1.969-8.672c0.76-2.812,1.63-5.463,2.609-7.953c0.979-2.489,2.078-4.667,3.297-6.531
				c1.219-1.864,2.578-3.338,4.078-4.422c1.5-1.083,3.146-1.625,4.938-1.625c0.708,0,1.453,0.125,2.234,0.375
				s1.495,0.656,2.141,1.219c0.646,0.562,1.182,1.308,1.609,2.234c0.427,0.927,0.641,2.068,0.641,3.422
				c0,1.229-0.193,2.641-0.578,4.234c-0.386,1.594-0.927,3.297-1.625,5.109c-0.698,1.812-1.521,3.698-2.469,5.656
				c-0.948,1.959-1.984,3.912-3.109,5.859c-1.125,1.948-2.308,3.865-3.547,5.75c-1.24,1.886-2.505,3.651-3.797,5.297l-0.062,0.5
				c0.417-0.208,0.729-0.344,0.938-0.406c0.208-0.062,0.427-0.094,0.656-0.094c0.271,0,0.489,0.026,0.656,0.078
				c0.167,0.053,0.317,0.109,0.453,0.172c0.135,0.062,0.276,0.12,0.422,0.172c0.146,0.053,0.323,0.078,0.531,0.078
				c2.062,0,3.885-0.244,5.469-0.734c1.583-0.489,2.917-1.036,4-1.641c1.271-0.688,2.375-1.489,3.312-2.406l-0.688,7.594
				c-1.375,0.75-2.812,1.334-4.312,1.75c-1.5,0.417-2.886,0.729-4.156,0.938c-1.479,0.229-2.948,0.375-4.406,0.438
				c0.75,1.375,1.427,2.803,2.031,4.281c0.521,1.271,0.995,2.693,1.422,4.266c0.427,1.573,0.641,3.162,0.641,4.766
				c0,0.188-0.026,0.583-0.078,1.188c-0.052,0.604-0.141,1.344-0.266,2.219s-0.302,1.844-0.531,2.906
				c-0.229,1.062-0.526,2.135-0.891,3.219c-0.365,1.083-0.808,2.13-1.328,3.141c-0.521,1.01-1.13,1.906-1.828,2.688
				c-0.698,0.781-1.5,1.411-2.406,1.891c-0.906,0.479-1.933,0.719-3.078,0.719c-1.146,0-2.146-0.261-3-0.781
				c-0.854-0.521-1.583-1.225-2.188-2.109c-0.604-0.886-1.109-1.917-1.516-3.094c-0.406-1.178-0.724-2.422-0.953-3.734
				c-0.229-1.312-0.391-2.651-0.484-4.016C217.325,73.761,217.278,72.444,217.278,71.173z M225.622,56.173
				c-0.083,0-0.177,0.234-0.281,0.703c-0.104,0.469-0.203,1.073-0.297,1.812c-0.094,0.74-0.183,1.568-0.266,2.484
				c-0.083,0.917-0.156,1.818-0.219,2.703c-0.062,0.886-0.115,1.709-0.156,2.469c-0.042,0.761-0.062,1.359-0.062,1.797
				c0,3.062,0.057,5.5,0.172,7.312c0.114,1.812,0.26,3.188,0.438,4.125c0.177,0.938,0.375,1.547,0.594,1.828
				s0.442,0.422,0.672,0.422c0.708,0,1.276-0.323,1.703-0.969c0.427-0.646,0.75-1.464,0.969-2.453
				c0.219-0.99,0.364-2.073,0.438-3.25c0.073-1.178,0.109-2.308,0.109-3.391c0-0.729-0.058-1.625-0.172-2.688
				c-0.115-1.062-0.271-2.172-0.469-3.328c-0.198-1.156-0.427-2.307-0.688-3.453c-0.261-1.146-0.531-2.172-0.812-3.078
				s-0.568-1.641-0.859-2.203C226.142,56.455,225.872,56.173,225.622,56.173z M233.215,22.08c-1.208,3-2.156,5.641-2.844,7.922
				s-1.208,4.308-1.562,6.078c-0.354,1.771-0.604,3.328-0.75,4.672c-0.146,1.344-0.292,2.589-0.438,3.734
				c1.271-2.396,2.552-4.755,3.844-7.078c1.292-2.322,2.458-4.479,3.5-6.469c1.042-1.989,1.891-3.744,2.547-5.266
				c0.656-1.521,0.984-2.677,0.984-3.469c0-1.104-0.156-1.911-0.469-2.422c-0.312-0.51-0.74-0.766-1.281-0.766
				c-0.958,0-1.688,0.255-2.188,0.766C234.059,20.293,233.611,21.059,233.215,22.08z"/>
			<path fill="#FFFFFF" d="M252.309,69.986c-1.958,0-3.672-0.354-5.141-1.062c-1.469-0.708-2.693-1.661-3.672-2.859
				c-0.979-1.197-1.714-2.583-2.203-4.156c-0.49-1.572-0.734-3.224-0.734-4.953c0-1.166,0.114-2.4,0.344-3.703
				c0.229-1.302,0.578-2.578,1.047-3.828s1.057-2.442,1.766-3.578c0.708-1.135,1.536-2.135,2.484-3
				c0.948-0.864,2.01-1.552,3.188-2.062c1.177-0.51,2.484-0.766,3.922-0.766c1.167,0,2.25,0.188,3.25,0.562s1.87,0.901,2.61,1.578
				c0.738,0.678,1.316,1.495,1.734,2.453c0.416,0.959,0.625,2.031,0.625,3.219c0,1.292-0.318,2.584-0.953,3.875
				c-0.637,1.292-1.516,2.511-2.641,3.656c-1.125,1.146-2.464,2.167-4.016,3.062c-1.552,0.896-3.234,1.594-5.047,2.094
				c0.312,0.562,0.62,1.031,0.922,1.406c0.302,0.375,0.609,0.667,0.922,0.875c0.312,0.209,0.641,0.354,0.984,0.438
				c0.344,0.084,0.713,0.125,1.109,0.125c1.25,0,2.567-0.25,3.953-0.75c1.385-0.5,2.735-1.125,4.047-1.875s2.551-1.567,3.719-2.453
				c1.166-0.885,2.156-1.724,2.969-2.516l4.031,4.188c-1.834,1.896-3.781,3.573-5.844,5.031c-0.896,0.625-1.859,1.24-2.891,1.844
				c-1.031,0.604-2.115,1.141-3.25,1.609c-1.137,0.469-2.313,0.844-3.532,1.125S253.559,69.986,252.309,69.986z M248.153,55.298
				c0.75,0,1.567-0.192,2.453-0.578c0.885-0.385,1.708-0.88,2.469-1.484c0.76-0.604,1.401-1.26,1.922-1.969
				c0.521-0.708,0.781-1.396,0.781-2.062c0-0.938-0.172-1.708-0.516-2.312c-0.344-0.604-0.766-0.906-1.266-0.906
				c-0.896,0-1.662,0.167-2.297,0.5c-0.636,0.334-1.167,0.766-1.594,1.297c-0.427,0.531-0.771,1.136-1.031,1.812
				c-0.261,0.678-0.458,1.359-0.594,2.047c-0.136,0.688-0.224,1.354-0.266,2C248.173,54.289,248.153,54.84,248.153,55.298z"/>
			<path fill="#FFFFFF" d="M275.997,69.986c-1.917,0-3.6-0.354-5.047-1.062c-1.448-0.708-2.662-1.656-3.641-2.844
				c-0.979-1.188-1.719-2.562-2.219-4.125s-0.75-3.188-0.75-4.875c0-1.208,0.125-2.469,0.375-3.781s0.619-2.599,1.109-3.859
				c0.489-1.26,1.094-2.463,1.812-3.609c0.719-1.146,1.552-2.15,2.5-3.016c0.947-0.864,2.005-1.552,3.172-2.062
				c1.166-0.51,2.447-0.766,3.844-0.766c1.188,0,2.286,0.183,3.297,0.547c1.01,0.365,1.875,0.87,2.594,1.516
				c0.719,0.646,1.281,1.412,1.688,2.297c0.406,0.886,0.609,1.839,0.609,2.859c0,0.709-0.094,1.406-0.281,2.094
				s-0.464,1.308-0.828,1.859c-0.365,0.553-0.808,0.995-1.328,1.328c-0.521,0.334-1.104,0.5-1.75,0.5
				c-0.979,0-1.62-0.26-1.922-0.781c-0.303-0.521-0.453-1.239-0.453-2.156c0-0.375,0.016-0.771,0.047-1.188
				c0.031-0.416,0.047-0.791,0.047-1.125c0-0.5-0.053-0.916-0.156-1.25c-0.104-0.333-0.334-0.5-0.688-0.5
				c-0.854,0-1.584,0.203-2.188,0.609c-0.604,0.406-1.12,0.938-1.547,1.594c-0.428,0.656-0.766,1.396-1.016,2.219
				c-0.25,0.823-0.448,1.641-0.594,2.453c-0.146,0.812-0.24,1.589-0.281,2.328c-0.042,0.74-0.062,1.359-0.062,1.859
				c0,0.75,0.067,1.531,0.203,2.344c0.135,0.812,0.391,1.558,0.766,2.234c0.375,0.678,0.885,1.24,1.531,1.688
				c0.646,0.448,1.479,0.672,2.5,0.672c1,0,2.104-0.307,3.312-0.922c1.208-0.614,2.422-1.391,3.641-2.328s2.38-1.969,3.484-3.094
				c1.104-1.125,2.052-2.188,2.844-3.188l2.156,3.625c-1.562,2.229-3.25,4.219-5.062,5.969c-0.771,0.75-1.609,1.479-2.516,2.188
				c-0.906,0.709-1.854,1.339-2.844,1.891c-0.99,0.553-2.021,1-3.094,1.344C278.189,69.814,277.101,69.986,275.997,69.986z"/>
			<path fill="#FFFFFF" d="M315.341,62.986c-2,1.167-3.781,2.188-5.344,3.062s-2.953,1.604-4.172,2.188
				c-1.219,0.584-2.303,1.021-3.25,1.312c-0.948,0.292-1.808,0.438-2.578,0.438c-1.584,0-2.979-0.479-4.188-1.438
				c-1.209-0.958-2.219-2.338-3.031-4.141c-0.812-1.802-1.422-3.984-1.828-6.547s-0.609-5.447-0.609-8.656
				c0-1.25,0.052-2.583,0.156-4c0.104-1.416,0.25-2.822,0.438-4.219c-0.625-0.083-1.109-0.161-1.453-0.234
				c-0.344-0.072-0.709-0.146-1.094-0.219c-0.386-0.072-0.875-0.15-1.469-0.234c-0.594-0.083-1.453-0.188-2.578-0.312
				c-0.5-0.062-0.885-0.182-1.156-0.359c-0.271-0.177-0.469-0.385-0.594-0.625c-0.125-0.239-0.197-0.489-0.219-0.75
				c-0.021-0.26-0.031-0.484-0.031-0.672c0-0.416,0.203-0.734,0.609-0.953s0.928-0.38,1.562-0.484
				c0.636-0.104,1.333-0.161,2.094-0.172c0.76-0.01,1.489-0.005,2.188,0.016c0.697,0.021,1.322,0.037,1.875,0.047
				c0.552,0.011,0.932-0.005,1.141-0.047c0.562-2.812,1.275-5.536,2.141-8.172c0.864-2.635,1.833-4.979,2.906-7.031
				c1.072-2.052,2.244-3.698,3.516-4.938c1.271-1.239,2.604-1.859,4-1.859c0.896,0,1.713,0.25,2.453,0.75
				c0.739,0.5,1.369,1.167,1.891,2c0.521,0.833,0.922,1.808,1.203,2.922c0.281,1.115,0.422,2.276,0.422,3.484
				c0,1.021-0.146,2.1-0.438,3.234c-0.292,1.136-0.688,2.292-1.188,3.469c-0.5,1.178-1.089,2.37-1.766,3.578
				c-0.678,1.209-1.391,2.406-2.141,3.594c0.188,0.021,0.5,0.037,0.938,0.047c0.438,0.011,0.942,0.026,1.516,0.047
				c0.572,0.021,1.192,0.047,1.859,0.078c0.666,0.031,1.312,0.058,1.938,0.078c0.625,0.021,1.208,0.042,1.75,0.062
				c0.541,0.021,0.989,0.042,1.344,0.062c0.416,0.021,0.719,0.229,0.906,0.625c0.188,0.396,0.281,0.896,0.281,1.5
				c0,0.729-0.209,1.323-0.625,1.781c-0.417,0.459-0.875,0.688-1.375,0.688h-12c-0.604,0.834-1.214,1.651-1.828,2.453
				c-0.615,0.803-1.183,1.526-1.703,2.172c-0.084,1.292-0.156,2.562-0.219,3.812c-0.021,0.542-0.042,1.1-0.062,1.672
				c-0.021,0.573-0.042,1.141-0.062,1.703c-0.021,0.562-0.037,1.104-0.047,1.625c-0.011,0.521-0.016,1-0.016,1.438
				c0,1.125,0.104,2.073,0.312,2.844c0.208,0.771,0.51,1.401,0.906,1.891c0.396,0.49,0.88,0.844,1.453,1.062
				c0.572,0.219,1.213,0.328,1.922,0.328c0.438,0,0.984-0.104,1.641-0.312c0.656-0.208,1.375-0.494,2.156-0.859
				c0.781-0.364,1.604-0.797,2.469-1.297c0.864-0.5,1.719-1.047,2.562-1.641s1.65-1.219,2.422-1.875
				c0.771-0.656,1.469-1.328,2.094-2.016V62.986z M305.341,23.423c0-0.229-0.016-0.484-0.047-0.766s-0.1-0.547-0.203-0.797
				c-0.104-0.25-0.266-0.458-0.484-0.625c-0.219-0.167-0.526-0.25-0.922-0.25c-0.542,0-1.089,0.479-1.641,1.438
				c-0.553,0.959-1.084,2.183-1.594,3.672c-0.511,1.49-0.99,3.131-1.438,4.922c-0.448,1.792-0.859,3.531-1.234,5.219
				c0.312,0.042,0.625,0.078,0.938,0.109s0.635,0.068,0.969,0.109c0.625-1.062,1.275-2.213,1.953-3.453
				c0.677-1.239,1.286-2.458,1.828-3.656c0.541-1.197,0.989-2.317,1.344-3.359C305.163,24.945,305.341,24.09,305.341,23.423z"/>
			<path fill="#FFFFFF" d="M357.341,13.017c3.5,0,6.567,0.474,9.203,1.422c2.635,0.948,4.828,2.208,6.578,3.781
				c1.75,1.573,3.067,3.381,3.953,5.422c0.885,2.042,1.328,4.156,1.328,6.344c0,2.042-0.396,4.062-1.188,6.062
				c-0.792,2-1.984,3.844-3.578,5.531s-3.604,3.146-6.031,4.375c-2.428,1.229-5.276,2.094-8.547,2.594
				c-0.062,1.521-0.115,2.917-0.156,4.188c-0.021,0.542-0.042,1.084-0.062,1.625c-0.021,0.542-0.037,1.037-0.047,1.484
				c-0.011,0.448-0.021,0.839-0.031,1.172c-0.011,0.334-0.016,0.562-0.016,0.688c-0.042,1.459-0.214,2.975-0.516,4.547
				c-0.303,1.573-0.74,3.109-1.312,4.609c-0.573,1.5-1.271,2.922-2.094,4.266c-0.823,1.344-1.781,2.521-2.875,3.531
				c-1.094,1.01-2.318,1.812-3.672,2.406c-1.354,0.594-2.834,0.891-4.438,0.891c-1.709,0-3.234-0.443-4.578-1.328
				c-1.344-0.886-2.521-2.078-3.531-3.578c-1.011-1.5-1.865-3.229-2.562-5.188c-0.698-1.958-1.266-4.005-1.703-6.141
				c-0.438-2.135-0.756-4.286-0.953-6.453c-0.198-2.166-0.297-4.208-0.297-6.125c0-3.291,0.302-6.469,0.906-9.531
				c0.604-3.062,1.469-5.932,2.594-8.609c1.125-2.677,2.489-5.119,4.094-7.328c1.604-2.208,3.411-4.104,5.422-5.688
				c2.01-1.583,4.197-2.807,6.562-3.672C352.158,13.45,354.674,13.017,357.341,13.017z M338.591,48.33
				c0,0.854,0.005,2.006,0.016,3.453c0.01,1.448,0.067,2.995,0.172,4.641c0.104,1.646,0.271,3.312,0.5,5
				c0.229,1.688,0.567,3.214,1.016,4.578c0.447,1.365,1.01,2.479,1.688,3.344c0.677,0.864,1.525,1.297,2.547,1.297
				c1.062,0,1.969-0.37,2.719-1.109s1.375-1.697,1.875-2.875c0.5-1.177,0.896-2.51,1.188-4c0.291-1.489,0.51-2.984,0.656-4.484
				c0.146-1.5,0.239-2.932,0.281-4.297c0.041-1.364,0.062-2.525,0.062-3.484v-1.469c-1.729-0.688-3.089-1.291-4.078-1.812
				c-0.99-0.521-1.734-1.021-2.234-1.5c-0.5-0.479-0.818-0.984-0.953-1.516c-0.136-0.531-0.203-1.15-0.203-1.859
				c0-0.375,0.01-0.744,0.031-1.109c0.021-0.364,0.078-0.688,0.172-0.969s0.229-0.51,0.406-0.688
				c0.177-0.177,0.422-0.266,0.734-0.266c0.208,0,0.4,0.042,0.578,0.125c0.177,0.084,0.4,0.198,0.672,0.344
				c0.688,0.375,1.312,0.683,1.875,0.922c0.562,0.24,1.041,0.433,1.438,0.578c0.458,0.167,0.875,0.292,1.25,0.375
				c0-0.271,0.005-0.807,0.016-1.609c0.01-0.802,0.072-1.719,0.188-2.75c0.114-1.031,0.307-2.109,0.578-3.234
				c0.271-1.125,0.666-2.156,1.188-3.094c0.521-0.938,1.197-1.713,2.031-2.328c0.833-0.614,1.864-0.922,3.094-0.922
				c0.375,0,0.76,0.037,1.156,0.109c0.396,0.073,0.755,0.209,1.078,0.406c0.322,0.198,0.594,0.464,0.812,0.797
				c0.219,0.334,0.328,0.761,0.328,1.281c0,0.146-0.006,0.245-0.016,0.297c-0.011,0.053-0.016,0.12-0.016,0.203l-1.906,8.031
				l-0.281,2.469c2.041-0.312,3.802-0.812,5.281-1.5c1.479-0.688,2.703-1.5,3.672-2.438s1.688-1.969,2.156-3.094
				s0.703-2.281,0.703-3.469c0-1.166-0.225-2.359-0.672-3.578c-0.448-1.219-1.225-2.328-2.328-3.328
				c-1.104-1-2.584-1.822-4.438-2.469c-1.854-0.646-4.188-0.969-7-0.969c-2.104,0-4.011,0.401-5.719,1.203
				c-1.709,0.803-3.229,1.891-4.562,3.266c-1.334,1.375-2.49,2.979-3.469,4.812c-0.979,1.834-1.787,3.787-2.422,5.859
				c-0.636,2.073-1.104,4.209-1.406,6.406C338.741,44.106,338.591,46.247,338.591,48.33z"/>
			<path fill="#FFFFFF" d="M409.122,62.33c-0.479,0.667-1.12,1.448-1.922,2.344c-0.803,0.896-1.703,1.75-2.703,2.562
				s-2.073,1.5-3.219,2.062c-1.146,0.562-2.292,0.844-3.438,0.844c-1.375,0-2.521-0.442-3.438-1.328
				c-0.917-0.885-1.709-2.172-2.375-3.859c-0.5,0.584-1.115,1.178-1.844,1.781c-0.729,0.604-1.526,1.151-2.391,1.641
				c-0.865,0.49-1.766,0.891-2.703,1.203s-1.875,0.469-2.812,0.469c-1,0-1.975-0.203-2.922-0.609
				c-0.948-0.406-1.787-0.989-2.516-1.75c-0.729-0.76-1.312-1.688-1.75-2.781s-0.656-2.328-0.656-3.703
				c0-1.562,0.219-3.166,0.656-4.812c0.438-1.646,1.041-3.255,1.812-4.828c0.771-1.572,1.682-3.057,2.734-4.453
				c1.052-1.396,2.203-2.614,3.453-3.656c1.25-1.041,2.567-1.869,3.953-2.484c1.385-0.614,2.797-0.922,4.234-0.922
				c0.479,0,0.854,0.094,1.125,0.281c0.271,0.188,0.494,0.401,0.672,0.641c0.177,0.24,0.349,0.475,0.516,0.703
				c0.166,0.229,0.375,0.396,0.625,0.5c0.25,0.104,0.505,0.172,0.766,0.203c0.26,0.031,0.525,0.047,0.797,0.047
				c0.229,0,0.463-0.005,0.703-0.016c0.239-0.01,0.474-0.016,0.703-0.016c0.312,0,0.604,0.031,0.875,0.094
				c0.271,0.062,0.51,0.198,0.719,0.406c0.208,0.209,0.369,0.5,0.484,0.875c0.114,0.375,0.172,0.886,0.172,1.531
				c0,1-0.104,2.109-0.312,3.328c-0.209,1.219-0.438,2.469-0.688,3.75s-0.479,2.562-0.688,3.844
				c-0.209,1.281-0.312,2.495-0.312,3.641c0,0.979,0.088,1.745,0.266,2.297c0.177,0.553,0.557,0.828,1.141,0.828
				c0.438,0,0.896-0.109,1.375-0.328c0.479-0.219,0.963-0.505,1.453-0.859c0.489-0.354,0.979-0.755,1.469-1.203
				c0.489-0.447,0.953-0.911,1.391-1.391c1.021-1.125,2.052-2.396,3.094-3.812L409.122,62.33z M382.435,59.861
				c0,0.521,0.036,1.026,0.109,1.516c0.072,0.49,0.203,0.928,0.391,1.312c0.188,0.386,0.438,0.698,0.75,0.938
				c0.312,0.24,0.708,0.359,1.188,0.359c0.771,0,1.469-0.333,2.094-1c0.625-0.666,1.166-1.469,1.625-2.406
				c0.458-0.938,0.828-1.906,1.109-2.906s0.463-1.833,0.547-2.5l1.906-9.188c-0.854,0-1.688,0.214-2.5,0.641
				c-0.812,0.428-1.578,1.006-2.297,1.734c-0.719,0.729-1.381,1.562-1.984,2.5c-0.604,0.938-1.125,1.922-1.562,2.953
				s-0.776,2.068-1.016,3.109C382.554,57.965,382.435,58.945,382.435,59.861z"/>
			<path fill="#FFFFFF" d="M440.685,63.861c-1.479,1.146-2.938,2.167-4.375,3.062c-0.604,0.375-1.24,0.745-1.906,1.109
				c-0.667,0.365-1.323,0.688-1.969,0.969c-0.646,0.281-1.276,0.511-1.891,0.688c-0.615,0.178-1.183,0.266-1.703,0.266
				c-0.292,0-0.725-0.062-1.297-0.188c-0.573-0.125-1.198-0.38-1.875-0.766c-0.678-0.385-1.354-0.942-2.031-1.672
				c-0.678-0.729-1.266-1.697-1.766-2.906c-0.771,0.75-1.589,1.464-2.453,2.141c-0.865,0.678-1.761,1.266-2.688,1.766
				c-0.928,0.5-1.865,0.901-2.812,1.203c-0.948,0.303-1.901,0.453-2.859,0.453c-1.354,0-2.526-0.291-3.516-0.875
				c-0.99-0.583-1.812-1.359-2.469-2.328s-1.146-2.067-1.469-3.297c-0.323-1.229-0.484-2.5-0.484-3.812
				c0-1.333,0.172-2.682,0.516-4.047c0.344-1.364,0.844-2.688,1.5-3.969s1.453-2.489,2.391-3.625c0.938-1.135,2-2.146,3.188-3.031
				c1.188-0.885,2.479-1.619,3.875-2.203c1.396-0.583,2.885-0.947,4.469-1.094c0.062-2.666,0.302-5.302,0.719-7.906
				c0.416-2.604,0.969-5.083,1.656-7.438c0.688-2.354,1.494-4.531,2.422-6.531c0.927-2,1.942-3.729,3.047-5.188
				c1.104-1.458,2.281-2.599,3.531-3.422c1.25-0.823,2.541-1.234,3.875-1.234c0.979,0,1.812,0.255,2.5,0.766
				c0.688,0.511,1.244,1.188,1.672,2.031c0.427,0.844,0.734,1.823,0.922,2.938c0.188,1.115,0.281,2.266,0.281,3.453
				c0,0.729-0.031,1.479-0.094,2.25c-0.271,2.938-0.771,5.714-1.5,8.328c-0.729,2.615-1.584,5.162-2.562,7.641
				c-0.979,2.479-2.042,4.938-3.188,7.375c-1.146,2.438-2.261,4.969-3.344,7.594c-0.104,0.292-0.209,0.646-0.312,1.062
				c-0.104,0.417-0.203,0.87-0.297,1.359c-0.094,0.49-0.172,0.99-0.234,1.5c-0.062,0.511-0.094,1.006-0.094,1.484
				c0,0.604,0.036,1.178,0.109,1.719c0.072,0.542,0.192,1.026,0.359,1.453c0.166,0.428,0.391,0.766,0.672,1.016
				s0.63,0.375,1.047,0.375c0.396,0,0.828-0.078,1.297-0.234s0.963-0.369,1.484-0.641c0.521-0.271,1.047-0.578,1.578-0.922
				s1.047-0.692,1.547-1.047c1.146-0.833,2.344-1.781,3.594-2.844L440.685,63.861z M419.185,46.361
				c-1.375,0.667-2.6,1.547-3.672,2.641c-1.073,1.094-1.969,2.276-2.688,3.547c-0.719,1.271-1.266,2.553-1.641,3.844
				c-0.375,1.292-0.562,2.459-0.562,3.5c0,0.417,0.047,0.834,0.141,1.25c0.094,0.417,0.266,0.792,0.516,1.125
				c0.25,0.334,0.604,0.604,1.062,0.812c0.458,0.209,1.052,0.312,1.781,0.312c0.375,0,0.744-0.094,1.109-0.281
				c0.364-0.188,0.713-0.432,1.047-0.734c0.333-0.302,0.65-0.646,0.953-1.031c0.302-0.385,0.578-0.786,0.828-1.203
				c0.583-0.958,1.114-2.041,1.594-3.25c-0.062-0.291-0.115-0.755-0.156-1.391c-0.042-0.635-0.073-1.344-0.094-2.125
				c-0.021-0.781-0.042-1.588-0.062-2.422c-0.021-0.833-0.037-1.594-0.047-2.281c-0.011-0.688-0.026-1.25-0.047-1.688
				C419.226,46.548,419.205,46.34,419.185,46.361z M433.872,23.705c0.125-1.458,0.188-2.614,0.188-3.469
				c0-1.125-0.1-1.906-0.297-2.344c-0.198-0.438-0.484-0.656-0.859-0.656c-0.667,0-1.271,0.422-1.812,1.266
				c-0.542,0.844-1.021,1.922-1.438,3.234c-0.417,1.312-0.781,2.761-1.094,4.344c-0.312,1.584-0.573,3.115-0.781,4.594
				c-0.209,1.479-0.375,2.812-0.5,4s-0.209,2.031-0.25,2.531c-0.084,1.021-0.151,2.006-0.203,2.953
				c-0.053,0.948-0.089,1.812-0.109,2.594c-0.021,0.781-0.031,1.464-0.031,2.047c0,0.584,0,1.031,0,1.344v0.312
				c1.188-2.708,2.281-5.406,3.281-8.094c0.416-1.146,0.838-2.349,1.266-3.609c0.427-1.26,0.817-2.525,1.172-3.797
				c0.354-1.271,0.661-2.521,0.922-3.75C433.585,25.976,433.768,24.809,433.872,23.705z"/>
			<path fill="#FFFFFF" d="M474.185,63.861c-1.479,1.146-2.938,2.167-4.375,3.062c-0.604,0.375-1.24,0.745-1.906,1.109
				c-0.667,0.365-1.323,0.688-1.969,0.969c-0.646,0.281-1.276,0.511-1.891,0.688c-0.615,0.178-1.183,0.266-1.703,0.266
				c-0.292,0-0.725-0.062-1.297-0.188c-0.573-0.125-1.198-0.38-1.875-0.766c-0.678-0.385-1.354-0.942-2.031-1.672
				c-0.678-0.729-1.266-1.697-1.766-2.906c-0.771,0.75-1.589,1.464-2.453,2.141c-0.865,0.678-1.761,1.266-2.688,1.766
				c-0.928,0.5-1.865,0.901-2.812,1.203c-0.948,0.303-1.901,0.453-2.859,0.453c-1.354,0-2.526-0.291-3.516-0.875
				c-0.99-0.583-1.812-1.359-2.469-2.328s-1.146-2.067-1.469-3.297c-0.323-1.229-0.484-2.5-0.484-3.812
				c0-1.333,0.172-2.682,0.516-4.047c0.344-1.364,0.844-2.688,1.5-3.969s1.453-2.489,2.391-3.625c0.938-1.135,2-2.146,3.188-3.031
				c1.188-0.885,2.479-1.619,3.875-2.203c1.396-0.583,2.885-0.947,4.469-1.094c0.062-2.666,0.302-5.302,0.719-7.906
				c0.416-2.604,0.969-5.083,1.656-7.438c0.688-2.354,1.494-4.531,2.422-6.531c0.927-2,1.942-3.729,3.047-5.188
				c1.104-1.458,2.281-2.599,3.531-3.422c1.25-0.823,2.541-1.234,3.875-1.234c0.979,0,1.812,0.255,2.5,0.766
				c0.688,0.511,1.244,1.188,1.672,2.031c0.427,0.844,0.734,1.823,0.922,2.938c0.188,1.115,0.281,2.266,0.281,3.453
				c0,0.729-0.031,1.479-0.094,2.25c-0.271,2.938-0.771,5.714-1.5,8.328c-0.729,2.615-1.584,5.162-2.562,7.641
				c-0.979,2.479-2.042,4.938-3.188,7.375c-1.146,2.438-2.261,4.969-3.344,7.594c-0.104,0.292-0.209,0.646-0.312,1.062
				c-0.104,0.417-0.203,0.87-0.297,1.359c-0.094,0.49-0.172,0.99-0.234,1.5c-0.062,0.511-0.094,1.006-0.094,1.484
				c0,0.604,0.036,1.178,0.109,1.719c0.072,0.542,0.192,1.026,0.359,1.453c0.166,0.428,0.391,0.766,0.672,1.016
				s0.63,0.375,1.047,0.375c0.396,0,0.828-0.078,1.297-0.234s0.963-0.369,1.484-0.641c0.521-0.271,1.047-0.578,1.578-0.922
				s1.047-0.692,1.547-1.047c1.146-0.833,2.344-1.781,3.594-2.844L474.185,63.861z M452.685,46.361
				c-1.375,0.667-2.6,1.547-3.672,2.641c-1.073,1.094-1.969,2.276-2.688,3.547c-0.719,1.271-1.266,2.553-1.641,3.844
				c-0.375,1.292-0.562,2.459-0.562,3.5c0,0.417,0.047,0.834,0.141,1.25c0.094,0.417,0.266,0.792,0.516,1.125
				c0.25,0.334,0.604,0.604,1.062,0.812c0.458,0.209,1.052,0.312,1.781,0.312c0.375,0,0.744-0.094,1.109-0.281
				c0.364-0.188,0.713-0.432,1.047-0.734c0.333-0.302,0.65-0.646,0.953-1.031c0.302-0.385,0.578-0.786,0.828-1.203
				c0.583-0.958,1.114-2.041,1.594-3.25c-0.062-0.291-0.115-0.755-0.156-1.391c-0.042-0.635-0.073-1.344-0.094-2.125
				c-0.021-0.781-0.042-1.588-0.062-2.422c-0.021-0.833-0.037-1.594-0.047-2.281c-0.011-0.688-0.026-1.25-0.047-1.688
				C452.726,46.548,452.705,46.34,452.685,46.361z M467.372,23.705c0.125-1.458,0.188-2.614,0.188-3.469
				c0-1.125-0.1-1.906-0.297-2.344c-0.198-0.438-0.484-0.656-0.859-0.656c-0.667,0-1.271,0.422-1.812,1.266
				c-0.542,0.844-1.021,1.922-1.438,3.234c-0.417,1.312-0.781,2.761-1.094,4.344c-0.312,1.584-0.573,3.115-0.781,4.594
				c-0.209,1.479-0.375,2.812-0.5,4s-0.209,2.031-0.25,2.531c-0.084,1.021-0.151,2.006-0.203,2.953
				c-0.053,0.948-0.089,1.812-0.109,2.594c-0.021,0.781-0.031,1.464-0.031,2.047c0,0.584,0,1.031,0,1.344v0.312
				c1.188-2.708,2.281-5.406,3.281-8.094c0.416-1.146,0.838-2.349,1.266-3.609c0.427-1.26,0.817-2.525,1.172-3.797
				c0.354-1.271,0.661-2.521,0.922-3.75C467.085,25.976,467.268,24.809,467.372,23.705z"/>
			<path fill="#FFFFFF" d="M479.403,69.986c-1.125,0-2.172-0.494-3.141-1.484c-0.969-0.989-1.812-2.317-2.531-3.984
				c-0.719-1.666-1.281-3.599-1.688-5.797c-0.406-2.197-0.609-4.505-0.609-6.922c0-1.854,0.135-3.869,0.406-6.047
				c0.271-2.177,0.666-4.422,1.188-6.734c0.521-2.312,1.141-4.635,1.859-6.969c0.719-2.333,1.531-4.572,2.438-6.719
				c0.906-2.146,1.891-4.151,2.953-6.016c1.062-1.864,2.177-3.489,3.344-4.875c1.166-1.385,2.385-2.474,3.656-3.266
				c1.271-0.792,2.562-1.188,3.875-1.188c0.896,0,1.635,0.203,2.219,0.609c0.583,0.406,1.041,0.943,1.375,1.609
				c0.333,0.667,0.567,1.422,0.703,2.266c0.135,0.844,0.203,1.703,0.203,2.578c0,1.958-0.225,3.953-0.672,5.984
				c-0.448,2.031-1.053,4.073-1.812,6.125c-0.761,2.053-1.641,4.109-2.641,6.172s-2.042,4.109-3.125,6.141
				c-1.084,2.031-2.172,4.031-3.266,6s-2.12,3.891-3.078,5.766c-0.104,0.209-0.214,0.479-0.328,0.812
				c-0.115,0.334-0.225,0.693-0.328,1.078c-0.104,0.386-0.209,0.797-0.312,1.234c-0.104,0.438-0.188,0.865-0.25,1.281v0.438
				c0,0.542,0.057,1.068,0.172,1.578c0.114,0.511,0.255,0.969,0.422,1.375c0.166,0.406,0.344,0.729,0.531,0.969
				c0.188,0.24,0.364,0.359,0.531,0.359c0.396,0,0.849-0.083,1.359-0.25c0.51-0.166,1.052-0.391,1.625-0.672
				c0.572-0.281,1.161-0.604,1.766-0.969c0.604-0.364,1.188-0.734,1.75-1.109c1.312-0.875,2.688-1.885,4.125-3.031l2.562,6.562
				c-1.854,1.334-3.688,2.521-5.5,3.562c-0.792,0.438-1.609,0.87-2.453,1.297c-0.844,0.428-1.693,0.808-2.547,1.141
				c-0.854,0.334-1.688,0.6-2.5,0.797C480.872,69.887,480.111,69.986,479.403,69.986z M479.435,44.986
				c0.938-1.666,1.932-3.541,2.984-5.625c1.052-2.083,2.047-4.229,2.984-6.438c0.938-2.208,1.75-4.411,2.438-6.609
				c0.688-2.197,1.125-4.244,1.312-6.141c0-0.604-0.016-1.12-0.047-1.547c-0.031-0.427-0.131-0.641-0.297-0.641
				c-0.604,0-1.256,0.391-1.953,1.172c-0.698,0.781-1.396,1.839-2.094,3.172c-0.698,1.334-1.365,2.886-2,4.656
				c-0.636,1.771-1.203,3.656-1.703,5.656s-0.896,4.058-1.188,6.172C479.58,40.929,479.435,42.986,479.435,44.986z"/>
			<path fill="#FFFFFF" d="M500.966,69.986c-1.959,0-3.672-0.354-5.141-1.062c-1.469-0.708-2.693-1.661-3.672-2.859
				c-0.979-1.197-1.714-2.583-2.203-4.156c-0.49-1.572-0.734-3.224-0.734-4.953c0-1.166,0.114-2.4,0.344-3.703
				c0.229-1.302,0.578-2.578,1.047-3.828s1.057-2.442,1.766-3.578c0.708-1.135,1.536-2.135,2.484-3
				c0.947-0.864,2.01-1.552,3.188-2.062c1.177-0.51,2.484-0.766,3.922-0.766c1.166,0,2.25,0.188,3.25,0.562s1.869,0.901,2.609,1.578
				c0.739,0.678,1.317,1.495,1.734,2.453c0.416,0.959,0.625,2.031,0.625,3.219c0,1.292-0.318,2.584-0.953,3.875
				c-0.636,1.292-1.516,2.511-2.641,3.656c-1.125,1.146-2.464,2.167-4.016,3.062c-1.553,0.896-3.234,1.594-5.047,2.094
				c0.312,0.562,0.619,1.031,0.922,1.406c0.302,0.375,0.609,0.667,0.922,0.875c0.312,0.209,0.641,0.354,0.984,0.438
				c0.344,0.084,0.713,0.125,1.109,0.125c1.25,0,2.567-0.25,3.953-0.75c1.385-0.5,2.734-1.125,4.047-1.875s2.552-1.567,3.719-2.453
				c1.166-0.885,2.156-1.724,2.969-2.516l4.031,4.188c-1.834,1.896-3.781,3.573-5.844,5.031c-0.896,0.625-1.859,1.24-2.891,1.844
				c-1.031,0.604-2.115,1.141-3.25,1.609c-1.136,0.469-2.312,0.844-3.531,1.125S502.216,69.986,500.966,69.986z M496.81,55.298
				c0.75,0,1.567-0.192,2.453-0.578c0.885-0.385,1.708-0.88,2.469-1.484c0.76-0.604,1.4-1.26,1.922-1.969
				c0.521-0.708,0.781-1.396,0.781-2.062c0-0.938-0.172-1.708-0.516-2.312c-0.344-0.604-0.766-0.906-1.266-0.906
				c-0.896,0-1.662,0.167-2.297,0.5c-0.636,0.334-1.167,0.766-1.594,1.297c-0.428,0.531-0.771,1.136-1.031,1.812
				c-0.261,0.678-0.459,1.359-0.594,2.047c-0.136,0.688-0.225,1.354-0.266,2C496.83,54.289,496.81,54.84,496.81,55.298z"/>
			<path fill="#FFFFFF" d="M513.997,57.986c1.166-1,2.114-1.833,2.844-2.5c0.729-0.666,1.354-1.275,1.875-1.828
				c0.521-0.552,0.994-1.109,1.422-1.672c0.427-0.562,0.932-1.229,1.516-2c0.583-0.771,1.291-1.713,2.125-2.828
				c0.833-1.114,1.916-2.505,3.25-4.172c0.271-0.375,0.572-0.739,0.906-1.094c0.333-0.354,0.703-0.672,1.109-0.953
				s0.854-0.51,1.344-0.688c0.489-0.177,1.036-0.266,1.641-0.266c1,0,1.771,0.109,2.312,0.328c0.541,0.219,0.938,0.484,1.188,0.797
				s0.396,0.641,0.438,0.984c0.041,0.344,0.062,0.641,0.062,0.891c0,0.5-0.198,1.053-0.594,1.656
				c-0.396,0.604-0.834,1.188-1.312,1.75c-0.479,0.562-0.933,1.078-1.359,1.547c-0.428,0.469-0.672,0.818-0.734,1.047
				c0,0.646,0.047,1.234,0.141,1.766s0.219,1.053,0.375,1.562c0.156,0.511,0.317,1.053,0.484,1.625
				c0.166,0.573,0.328,1.234,0.484,1.984s0.281,1.615,0.375,2.594c0.094,0.979,0.141,2.136,0.141,3.469
				c0.75-0.5,1.557-0.953,2.422-1.359c0.864-0.406,1.766-0.828,2.703-1.266s1.9-0.922,2.891-1.453
				c0.989-0.531,1.984-1.172,2.984-1.922l0.031,7c-1.292,1-2.787,1.938-4.484,2.812c-1.698,0.875-3.479,1.646-5.344,2.312
				c-1.865,0.667-3.75,1.193-5.656,1.578s-3.714,0.578-5.422,0.578c-1.229,0-2.375-0.115-3.438-0.344s-1.995-0.588-2.797-1.078
				c-0.803-0.489-1.453-1.13-1.953-1.922c-0.5-0.791-0.803-1.75-0.906-2.875c-0.292,0.062-0.578,0.104-0.859,0.125
				c-0.281,0.021-0.558,0.031-0.828,0.031c-0.334,0-0.646-0.01-0.938-0.031c-0.292-0.021-0.542-0.099-0.75-0.234
				c-0.209-0.135-0.375-0.354-0.5-0.656c-0.125-0.302-0.188-0.734-0.188-1.297c0-0.5,0.125-0.963,0.375-1.391
				c0.25-0.427,0.541-0.807,0.875-1.141c0.333-0.333,0.666-0.625,1-0.875C513.58,58.33,513.83,58.132,513.997,57.986z
				 M517.997,61.986c0.25,0,0.525,0.156,0.828,0.469c0.302,0.312,0.65,0.656,1.047,1.031c0.396,0.375,0.854,0.719,1.375,1.031
				c0.521,0.312,1.114,0.469,1.781,0.469c0.812,0,1.484-0.135,2.016-0.406c0.531-0.271,0.953-0.63,1.266-1.078
				c0.312-0.447,0.531-0.969,0.656-1.562s0.188-1.213,0.188-1.859c0-0.562-0.037-1.135-0.109-1.719
				c-0.073-0.583-0.167-1.141-0.281-1.672c-0.115-0.531-0.24-1.031-0.375-1.5c-0.136-0.469-0.256-0.869-0.359-1.203L517.997,61.986z
				"/>
		</g>
	</g>
</g>
</svg>
